<svg xmlns="http://www.w3.org/2000/svg" width="532" height="58" viewBox="0 0 532 58"><path d="M376.213 58h21.096V.819h-21.096V58zM261.724 3.841l-22.86 23.175c-.818.882-1.26 1.575-1.26 2.33 0 .756.442 1.449 1.26 2.33l22.86 23.175c2.393 2.393 4.03 3.086 7.557 3.086h75.318V38.604h-69.524l-9.824-9.258 9.824-9.257h69.524V.756h-75.318c-3.526 0-5.164.692-7.557 3.085zM82.875 54.851l22.86-23.175c.819-.881 1.26-1.574 1.26-2.33 0-.755-.441-1.448-1.26-2.33L82.875 3.841C80.482 1.448 78.845.756 75.318.756H0v19.333h69.524l9.825 9.257-9.825 9.258H0v19.333h75.318c3.527 0 5.164-.693 7.557-3.086zm419.477 3.086h29.283L476.406 1.322C475.524.441 474.832 0 474.076 0s-1.448.44-2.33 1.322l-55.23 56.615h29.032l28.34-29.346 28.464 29.346zm-301.777 0h29.284l-55.23-56.615C173.749.441 173.055 0 172.299 0c-.755 0-1.448.44-2.33 1.322l-55.228 56.615h29.031l28.339-29.346 28.464 29.346z" fill-rule="evenodd"/></svg>